<svg width="42.439453" height="44.181274" viewBox="0 0 42.4395 44.1813" fill="none" xmlns="http://www.w3.org/2000/svg" xmlns:xlink="http://www.w3.org/1999/xlink">
	<desc>
			Created with Pixso.
	</desc>
	<defs/>
	<path id="Vector" d="M17.88 19C16.68 20.18 14.87 20.07 13.74 18.82C12.66 17.64 12.65 15.75 13.84 14.57C14.99 13.44 16.85 13.49 17.93 14.68C19.07 15.93 19.02 17.87 17.88 19ZM28.23 30.36C27.03 31.54 25.22 31.43 24.14 30.24C23 28.99 23.05 27.18 24.25 25.99C25.39 24.86 27.2 24.85 28.33 26.1C29.42 27.29 29.37 29.23 28.23 30.36Z" fill="#64EE85" fill-opacity="1.000000" fill-rule="nonzero"/>
	<path id="Vector" d="M23.72 24.93C22.29 26.34 20.14 26.2 18.86 24.79C17.5 23.31 17.49 21.07 18.92 19.66C20.27 18.32 22.49 18.38 23.84 19.87C25.13 21.28 25.07 23.59 23.72 24.93Z" fill="#64EE85" fill-opacity="1.000000" fill-rule="nonzero"/>
	<path id="Vector" d="M13.02 24.16C12.12 25.04 10.66 24.95 9.8 24.01C8.95 23.07 8.99 21.61 9.89 20.73C10.79 19.84 12.25 19.82 13.1 20.75C13.96 21.69 13.92 23.27 13.02 24.16Z" fill="#64EE85" fill-opacity="1.000000" fill-rule="nonzero"/>
	<path id="Vector" d="M22.05 34.08C21.16 34.97 19.75 34.93 18.9 33.99C18.05 33.06 18.03 31.53 18.93 30.65C19.83 29.76 21.35 29.8 22.2 30.74C23.05 31.67 22.95 33.19 22.05 34.08Z" fill="#64EE85" fill-opacity="1.000000" fill-rule="nonzero"/>
	<path id="Vector" d="M10.85 4.95C10.45 4.52 10.47 3.79 10.95 3.31C11.37 2.9 12.07 2.92 12.47 3.35C12.92 3.86 12.9 4.58 12.48 5C12 5.47 11.3 5.45 10.85 4.95Z" fill="#64EE85" fill-opacity="1.000000" fill-rule="nonzero"/>
	<path id="Vector" d="M3.1 12.51C2.7 12.07 2.72 11.35 3.14 10.93C3.62 10.46 4.32 10.48 4.72 10.91C5.17 11.41 5.16 12.14 4.68 12.62C4.26 13.03 3.56 13.01 3.1 12.51Z" fill="#64EE85" fill-opacity="1.000000" fill-rule="nonzero"/>
	<path id="Vector" d="M0.45 8.69C0.13 8.34 0.14 7.75 0.48 7.41C0.87 7.02 1.44 7.03 1.77 7.39C2.14 7.8 2.12 8.39 1.73 8.77C1.39 9.11 0.82 9.1 0.45 8.69Z" fill="#64EE85" fill-opacity="1.000000" fill-rule="nonzero"/>
	<path id="Vector" d="M7.47 1.57C7.14 1.21 7.16 0.62 7.5 0.28C7.89 -0.11 8.46 -0.09 8.78 0.27C9.16 0.67 9.14 1.27 8.75 1.65C8.41 1.99 7.84 1.98 7.47 1.57Z" fill="#64EE85" fill-opacity="1.000000" fill-rule="nonzero"/>
	<path id="Vector" d="M2.19 3.04C1.79 2.6 1.81 1.87 2.22 1.46C2.64 1.05 3.35 1.07 3.75 1.5C4.2 2 4.18 2.73 3.76 3.15C3.34 3.56 2.64 3.54 2.19 3.04Z" fill="#64EE85" fill-opacity="1.000000" fill-rule="nonzero"/>
	<path id="Vector" d="M14.44 9.3C13.76 8.55 13.85 7.4 14.51 6.75C15.23 6.04 16.28 6.06 16.96 6.81C17.58 7.5 17.56 8.6 16.84 9.3C16.18 9.96 15.07 9.99 14.44 9.3Z" fill="#64EE85" fill-opacity="1.000000" fill-rule="nonzero"/>
	<path id="Vector" d="M6.23 17.41C5.55 16.66 5.58 15.56 6.3 14.86C6.96 14.21 8.07 14.17 8.75 14.92C9.37 15.61 9.29 16.77 8.63 17.41C7.91 18.12 6.86 18.1 6.23 17.41Z" fill="#64EE85" fill-opacity="1.000000" fill-rule="nonzero"/>
	<path id="Vector" d="M5.34 7.76C4.72 7.07 4.81 5.91 5.46 5.26C6.18 4.55 7.23 4.58 7.86 5.27C8.54 6.02 8.52 7.11 7.79 7.82C7.13 8.47 6.03 8.51 5.34 7.76Z" fill="#64EE85" fill-opacity="1.000000" fill-rule="nonzero"/>
	<path id="Vector" d="M9.47 13.04C8.62 12.1 8.72 10.59 9.61 9.7C10.52 8.81 11.92 8.85 12.77 9.79C13.62 10.72 13.64 12.24 12.74 13.13C11.84 14.02 10.33 13.98 9.47 13.04Z" fill="#64EE85" fill-opacity="1.000000" fill-rule="nonzero"/>
	<path id="Vector" d="M37.52 33.18C37.93 33.6 38.63 33.6 39.09 33.11C39.5 32.68 39.49 31.95 39.08 31.53C38.61 31.04 37.91 31.05 37.51 31.48C37.04 31.96 37.04 32.69 37.52 33.18Z" fill="#64EE85" fill-opacity="1.000000" fill-rule="nonzero"/>
	<path id="Vector" d="M30.09 41.08C30.51 41.5 31.21 41.5 31.61 41.07C32.08 40.58 32.08 39.85 31.67 39.43C31.2 38.95 30.49 38.95 30.03 39.44C29.62 39.87 29.63 40.6 30.09 41.08Z" fill="#64EE85" fill-opacity="1.000000" fill-rule="nonzero"/>
	<path id="Vector" d="M33.71 43.92C34.04 44.26 34.61 44.26 34.94 43.91C35.33 43.52 35.32 42.92 34.98 42.58C34.6 42.18 34.03 42.18 33.65 42.58C33.32 42.93 33.32 43.53 33.71 43.92Z" fill="#64EE85" fill-opacity="1.000000" fill-rule="nonzero"/>
	<path id="Vector" d="M40.7 36.77C41.03 37.11 41.6 37.11 41.93 36.76C42.32 36.36 42.31 35.76 41.98 35.42C41.59 35.02 41.02 35.03 40.64 35.43C40.31 35.78 40.31 36.37 40.7 36.77Z" fill="#64EE85" fill-opacity="1.000000" fill-rule="nonzero"/>
	<path id="Vector" d="M39.17 42.23C39.58 42.65 40.28 42.65 40.69 42.22C41.1 41.8 41.09 41.06 40.68 40.64C40.21 40.16 39.51 40.16 39.1 40.59C38.7 41.02 38.7 41.75 39.17 42.23Z" fill="#64EE85" fill-opacity="1.000000" fill-rule="nonzero"/>
	<path id="Vector" d="M33.42 29.34C34.12 30.07 35.23 30 35.87 29.33C36.57 28.6 36.56 27.5 35.86 26.78C35.21 26.11 34.16 26.12 33.46 26.85C32.82 27.52 32.77 28.68 33.42 29.34Z" fill="#64EE85" fill-opacity="1.000000" fill-rule="nonzero"/>
	<path id="Vector" d="M25.46 37.72C26.16 38.45 27.21 38.44 27.91 37.71C28.55 37.03 28.6 35.88 27.9 35.16C27.25 34.49 26.14 34.55 25.5 35.23C24.81 35.97 24.81 37.06 25.46 37.72Z" fill="#64EE85" fill-opacity="1.000000" fill-rule="nonzero"/>
	<path id="Vector" d="M34.71 38.85C35.36 39.52 36.47 39.45 37.1 38.78C37.81 38.04 37.8 36.95 37.15 36.28C36.45 35.56 35.39 35.56 34.7 36.3C34.06 36.97 34 38.13 34.71 38.85Z" fill="#64EE85" fill-opacity="1.000000" fill-rule="nonzero"/>
	<path id="Vector" d="M29.72 34.44C30.6 35.35 32.06 35.28 32.94 34.36C33.81 33.44 33.79 31.98 32.91 31.08C32.03 30.17 30.57 30.11 29.7 31.03C28.83 31.95 28.84 33.53 29.72 34.44Z" fill="#64EE85" fill-opacity="1.000000" fill-rule="nonzero"/>
	<path id="Vector" d="M22.86 14.29C23.75 13.39 23.71 11.87 22.84 10.95C21.97 10.02 20.57 10.01 19.69 10.91C18.8 11.81 18.72 13.33 19.59 14.25C20.46 15.17 21.98 15.19 22.86 14.29Z" fill="#64EE85" fill-opacity="1.000000" fill-rule="nonzero"/>
	<path id="Vector" d="M32.04 24.07C32.93 23.17 32.94 21.71 32.08 20.79C31.21 19.87 29.75 19.79 28.87 20.69C27.98 21.59 27.96 23.17 28.83 24.1C29.69 25.02 31.15 24.98 32.04 24.07Z" fill="#64EE85" fill-opacity="1.000000" fill-rule="nonzero"/>
	<path id="Vector" d="M24.18 18.61C23.04 17.36 23.15 15.48 24.35 14.3C25.49 13.18 27.3 13.16 28.44 14.41C29.51 15.6 29.47 17.54 28.33 18.66C27.13 19.85 25.27 19.8 24.18 18.61ZM13.27 29.38C12.14 28.14 12.24 26.25 13.38 25.13C14.58 23.95 16.33 23.99 17.47 25.24C18.55 26.43 18.56 28.31 17.36 29.5C16.22 30.62 14.35 30.57 13.27 29.38Z" fill="#64EE85" fill-opacity="1.000000" fill-rule="nonzero"/>
	<path id="Vector" d="M37.67 11.28C38.09 10.87 38.8 10.89 39.25 11.39C39.65 11.83 39.62 12.55 39.21 12.97C38.73 13.45 38.03 13.43 37.63 12.99C37.18 12.49 37.2 11.76 37.67 11.28Z" fill="#64EE85" fill-opacity="1.000000" fill-rule="nonzero"/>
	<path id="Vector" d="M30.41 3.23C30.83 2.81 31.54 2.83 31.93 3.27C32.39 3.77 32.37 4.49 31.95 4.91C31.47 5.39 30.77 5.36 30.31 4.87C29.92 4.42 29.93 3.7 30.41 3.23Z" fill="#64EE85" fill-opacity="1.000000" fill-rule="nonzero"/>
	<path id="Vector" d="M34.08 0.46C34.42 0.13 34.99 0.14 35.32 0.5C35.69 0.91 35.68 1.5 35.33 1.83C34.94 2.22 34.37 2.2 34 1.8C33.68 1.44 33.69 0.85 34.08 0.46Z" fill="#64EE85" fill-opacity="1.000000" fill-rule="nonzero"/>
	<path id="Vector" d="M40.92 7.77C41.27 7.43 41.84 7.45 42.16 7.8C42.53 8.21 42.52 8.8 42.17 9.14C41.78 9.53 41.21 9.51 40.84 9.1C40.52 8.75 40.53 8.15 40.92 7.77Z" fill="#64EE85" fill-opacity="1.000000" fill-rule="nonzero"/>
	<path id="Vector" d="M39.51 2.27C39.93 1.85 40.63 1.87 41.03 2.31C41.43 2.75 41.41 3.48 40.99 3.89C40.51 4.36 39.81 4.35 39.41 3.91C39.02 3.48 39.03 2.74 39.51 2.27Z" fill="#64EE85" fill-opacity="1.000000" fill-rule="nonzero"/>
	<path id="Vector" d="M33.5 15.03C34.22 14.32 35.33 14.41 35.95 15.1C36.63 15.85 36.61 16.94 35.89 17.65C35.23 18.3 34.18 18.27 33.49 17.52C32.87 16.84 32.84 15.68 33.5 15.03Z" fill="#64EE85" fill-opacity="1.000000" fill-rule="nonzero"/>
	<path id="Vector" d="M25.71 6.48C26.43 5.77 27.48 5.8 28.16 6.55C28.79 7.24 28.82 8.39 28.1 9.1C27.44 9.75 26.33 9.66 25.7 8.98C25.02 8.23 25.05 7.13 25.71 6.48Z" fill="#64EE85" fill-opacity="1.000000" fill-rule="nonzero"/>
	<path id="Vector" d="M34.98 5.56C35.64 4.9 36.75 5 37.38 5.68C38.06 6.43 38.03 7.52 37.37 8.18C36.65 8.89 35.6 8.86 34.92 8.11C34.29 7.42 34.26 6.27 34.98 5.56Z" fill="#64EE85" fill-opacity="1.000000" fill-rule="nonzero"/>
	<path id="Vector" d="M29.9 9.86C30.8 8.97 32.26 9.07 33.12 10C33.97 10.94 33.93 12.4 33.03 13.29C32.13 14.18 30.67 14.2 29.82 13.26C28.97 12.32 29.01 10.75 29.9 9.86Z" fill="#64EE85" fill-opacity="1.000000" fill-rule="nonzero"/>
	<path id="Vector" d="M10.56 39.05C10.15 39.48 10.16 40.21 10.63 40.69C11.04 41.12 11.74 41.12 12.15 40.68C12.62 40.2 12.61 39.47 12.2 39.04C11.73 38.56 11.03 38.56 10.56 39.05Z" fill="#64EE85" fill-opacity="1.000000" fill-rule="nonzero"/>
	<path id="Vector" d="M2.97 31.33C2.56 31.76 2.56 32.49 2.98 32.91C3.45 33.4 4.15 33.39 4.56 32.96C5.02 32.47 5.01 31.74 4.55 31.26C4.13 30.83 3.43 30.84 2.97 31.33Z" fill="#64EE85" fill-opacity="1.000000" fill-rule="nonzero"/>
	<path id="Vector" d="M0.24 35.09C-0.09 35.44 -0.09 36.03 0.25 36.38C0.63 36.77 1.2 36.77 1.53 36.42C1.92 36.02 1.91 35.43 1.53 35.03C1.19 34.69 0.62 34.69 0.24 35.09Z" fill="#64EE85" fill-opacity="1.000000" fill-rule="nonzero"/>
	<path id="Vector" d="M7.12 42.37C6.79 42.71 6.79 43.3 7.12 43.65C7.5 44.05 8.08 44.04 8.41 43.7C8.78 43.29 8.78 42.7 8.4 42.31C8.06 41.96 7.49 41.96 7.12 42.37Z" fill="#64EE85" fill-opacity="1.000000" fill-rule="nonzero"/>
	<path id="Vector" d="M1.86 40.78C1.46 41.2 1.46 41.93 1.87 42.36C2.28 42.78 2.99 42.78 3.39 42.35C3.85 41.86 3.85 41.13 3.44 40.7C3.03 40.28 2.33 40.29 1.86 40.78Z" fill="#64EE85" fill-opacity="1.000000" fill-rule="nonzero"/>
	<path id="Vector" d="M14.24 34.78C13.55 35.52 13.61 36.67 14.26 37.34C14.96 38.06 16.01 38.06 16.71 37.33C17.35 36.65 17.34 35.56 16.64 34.83C15.99 34.16 14.88 34.11 14.24 34.78Z" fill="#64EE85" fill-opacity="1.000000" fill-rule="nonzero"/>
	<path id="Vector" d="M6.2 26.5C5.5 27.24 5.51 28.33 6.21 29.05C6.86 29.72 7.97 29.77 8.66 29.04C9.3 28.37 9.24 27.21 8.59 26.55C7.89 25.82 6.83 25.83 6.2 26.5Z" fill="#64EE85" fill-opacity="1.000000" fill-rule="nonzero"/>
	<path id="Vector" d="M5.12 36.13C4.47 36.8 4.54 37.96 5.19 38.63C5.89 39.35 6.94 39.35 7.58 38.67C8.28 37.93 8.28 36.84 7.57 36.12C6.92 35.45 5.81 35.4 5.12 36.13Z" fill="#64EE85" fill-opacity="1.000000" fill-rule="nonzero"/>
	<path id="Vector" d="M9.35 30.93C8.48 31.85 8.54 33.38 9.42 34.28C10.31 35.19 11.71 35.18 12.58 34.26C13.45 33.34 13.5 31.82 12.62 30.92C11.74 30.01 10.22 30.02 9.35 30.93Z" fill="#64EE85" fill-opacity="1.000000" fill-rule="nonzero"/>
</svg>
